<?xml version="1.0" encoding="UTF-8"?>
<svg width="149px" height="33px" viewBox="0 0 149 33" version="1.1" xmlns="http://www.w3.org/2000/svg" xmlns:xlink="http://www.w3.org/1999/xlink">
    <!-- Generator: Sketch 61.2 (89653) - https://sketch.com -->
    <title>logo</title>
    <desc>Created with Sketch.</desc>
    <g id="Page-1" stroke="none" stroke-width="1" fill="none" fill-rule="evenodd">
        <g id="logo">
            <path d="M75.197,11.887 C70.508,11.887 69.175,16.116 69.175,21.585 L69.175,31.79 L65.498,31.79 L65.498,8.624 L69.175,8.624 L69.175,13.312 C70.14,10.141 72.071,8.624 75.473,8.624 L78.415,8.624 L78.415,11.887 L75.197,11.887 L75.197,11.887 Z M99.658,20.207 C99.658,14.967 96.578,11.565 91.936,11.565 C87.293,11.565 84.258,14.967 84.258,20.207 C84.258,25.447 87.293,28.847 91.936,28.847 C96.579,28.847 99.658,25.447 99.658,20.207 Z M84.58,27.974 L84.58,31.79 L80.903,31.79 L80.903,1.223 L84.58,1.223 L84.58,12.393 C85.96,9.911 88.993,8.256 92.257,8.256 C99.474,8.256 103.427,13.45 103.427,20.206 C103.427,26.963 99.474,32.157 92.257,32.157 C88.993,32.157 85.959,30.503 84.58,27.974 L84.58,27.974 Z M105.848,31.79 L109.524,31.79 L109.524,8.623 L105.848,8.623 L105.848,31.788 L105.848,31.79 Z M112.618,8.624 L116.295,8.624 L116.295,13.082 C117.491,9.865 120.386,8.256 123.926,8.256 C129.166,8.256 132.568,11.979 132.568,17.632 L132.568,31.79 L128.89,31.79 L128.89,18.23 C128.89,14.277 126.592,11.612 123.099,11.612 C119.145,11.612 116.295,14.783 116.295,19.288 L116.295,31.789 L112.618,31.789 L112.618,8.624 Z M141.875,1.223 L141.875,8.623 L149,8.623 L149,11.887 L141.875,11.887 L141.875,24.343 C141.875,26.918 143.346,28.434 145.599,28.434 L149,28.434 L149,31.79 L145.46,31.79 C141.047,31.79 138.198,29.032 138.198,24.527 L138.198,11.887 L133.371,11.887 L133.371,8.624 L136.956,8.624 C137.784,8.624 138.198,8.256 138.198,7.383 L138.198,1.223 L141.875,1.223 Z M58.17,1.223 L58.17,20.943 C58.17,25.676 54.86,28.618 49.85,28.618 C44.885,28.618 41.575,25.676 41.575,20.942 L41.575,1.223 L37.714,1.223 L37.714,20.758 C37.714,27.791 42.54,32.158 49.85,32.158 C57.158,32.158 61.985,27.791 61.985,20.758 L61.985,1.223 L58.17,1.223 Z" id="Shape" fill="#0A1743"></path>
            <path d="M15.53,2.372 C7.526,2.372 1.805,8.127 1.805,16.325 C1.805,24.469 7.529,30.278 15.531,30.278 C23.591,30.278 29.313,24.466 29.313,16.325 C29.313,8.129 23.594,2.372 15.531,2.372 L15.53,2.372 Z M0,16.325 C0,7.153 6.506,0.568 15.53,0.568 C24.61,0.568 31.118,7.151 31.118,16.325 C31.118,25.44 24.612,32.083 15.531,32.083 C6.504,32.083 0,25.437 0,16.325 Z" id="Shape" fill="#00A0CC"></path>
            <path d="M15.542,8.152 C10.85,8.152 7.507,11.506 7.507,16.325 C7.507,21.112 10.852,24.498 15.542,24.498 C20.268,24.498 23.611,21.109 23.611,16.325 C23.611,11.509 20.271,8.152 15.541,8.152 L15.542,8.152 Z M5.702,16.325 C5.702,10.533 9.83,6.347 15.542,6.347 C21.286,6.347 25.416,10.53 25.416,16.325 C25.416,22.083 21.288,26.303 15.542,26.303 C9.828,26.303 5.702,22.08 5.702,16.325 L5.702,16.325 Z" id="Shape" fill="#00A0CC"></path>
            <path d="M15.553,13.932 C14.173,13.932 13.21,14.885 13.21,16.325 C13.21,17.755 14.176,18.719 15.553,18.719 C16.944,18.719 17.908,17.753 17.908,16.325 C17.908,14.887 16.947,13.932 15.553,13.932 L15.553,13.932 Z M11.405,16.325 C11.405,13.912 13.153,12.127 15.553,12.127 C17.963,12.127 19.713,13.909 19.713,16.325 C19.713,18.725 17.965,20.523 15.553,20.523 C13.151,20.523 11.405,18.723 11.405,16.325 Z" id="Shape" fill="#00A0CC"></path>
        </g>
    </g>
</svg>